# xmcd
#
# Track frame offsets:
#	150
#	12525
#	23367
#	36675
#	61045
#	75987
#	93730
#	105842
#	117212
#	132687
#	149480
#	165102
#	179680
#	197320
#	209052
#	224407
#
# Disc length: 3191 seconds
#
# Revision: 1
# Processed by: cddbd v1.4PL0 Copyright (c) Steve Scherf et al.
# Submitted via: audiograbber 1.81.02
#
DISCID=de0c7510
DTITLE=Susan McAnn - Diamonds and Dreams
DYEAR=1991
DGENRE=Country
TTITLE0=Love Me One More Time
TTITLE1=When I Hear The Music
TTITLE2=Have You Ever Been Lonely
TTITLE3=String Of Diamonds (Medley)
TTITLE4=Always
TTITLE5=You´re Never Too Old To Love
TTITLE6=He Never Will Be Mine
TTITLE7=Lovin´ You
TTITLE8=I Vow To Thee My Country
TTITLE9=Yellow Roses
TTITLE10=Sonny´s Dream
TTITLE11=Broken Speed Of The Sound Of Loneliness
TTITLE12=Rose Of My Heart
TTITLE13=Hillbilly Girl With The Blues
TTITLE14=Everything Is Beautiful
TTITLE15=Give Me More Time
EXTD=
EXTT0=
EXTT1=
EXTT2=
EXTT3=
EXTT4=
EXTT5=
EXTT6=
EXTT7=
EXTT8=
EXTT9=
EXTT10=
EXTT11=
EXTT12=
EXTT13=
EXTT14=
EXTT15=
PLAYORDER=
